<?xml version="1.0" encoding="UTF-8" standalone="no"?>
<!-- Created with Inkscape (http://www.inkscape.org/) -->

<svg
   xmlns:dc="http://purl.org/dc/elements/1.1/"
   xmlns:cc="http://creativecommons.org/ns#"
   xmlns:rdf="http://www.w3.org/1999/02/22-rdf-syntax-ns#"
   xmlns:svg="http://www.w3.org/2000/svg"
   xmlns="http://www.w3.org/2000/svg"
   xmlns:sodipodi="http://sodipodi.sourceforge.net/DTD/sodipodi-0.dtd"
   xmlns:inkscape="http://www.inkscape.org/namespaces/inkscape"
   width="111.64541"
   height="110.00045"
   viewBox="0 0 29.539513 29.104286"
   version="1.1"
   id="svg8"
   inkscape:version="0.92.3 (2405546, 2018-03-11)"
   sodipodi:docname="mouth_pincers.svg">
  <defs
     id="defs2" />
  <sodipodi:namedview
     id="base"
     pagecolor="#ffffff"
     bordercolor="#666666"
     borderopacity="1.0"
     inkscape:pageopacity="0.0"
     inkscape:pageshadow="2"
     inkscape:zoom="1.979899"
     inkscape:cx="40.915882"
     inkscape:cy="-49.830162"
     inkscape:document-units="mm"
     inkscape:current-layer="layer1"
     showgrid="true"
     units="px"
     inkscape:window-width="1920"
     inkscape:window-height="1025"
     inkscape:window-x="0"
     inkscape:window-y="27"
     inkscape:window-maximized="1"
     fit-margin-top="5"
     fit-margin-left="5"
     fit-margin-right="5"
     fit-margin-bottom="5" />
  <metadata
     id="metadata5">
    <rdf:RDF>
      <cc:Work
         rdf:about="">
        <dc:format>image/svg+xml</dc:format>
        <dc:type
           rdf:resource="http://purl.org/dc/dcmitype/StillImage" />
        <dc:title></dc:title>
      </cc:Work>
    </rdf:RDF>
  </metadata>
  <g
     inkscape:label="Layer 1"
     inkscape:groupmode="layer"
     id="layer1"
     transform="translate(-51.59375,-173.96862)">
    <g
       id="g976"
       transform="matrix(0.16495783,-0.09201832,0.1155734,0.39622565,39.742603,116.48209)">
      <path
         d="m 13.417201,171.41692 a 26.458334,13.229167 0 0 1 -37.417735,0 26.458334,13.229167 0 0 1 0,-18.70887 26.458334,13.229167 0 0 1 37.417734,0 l -18.7088665,9.35443 z"
         sodipodi:end="5.4977871"
         sodipodi:start="0.78539816"
         sodipodi:ry="13.229167"
         sodipodi:rx="26.458334"
         sodipodi:cy="162.06248"
         sodipodi:cx="-5.2916665"
         sodipodi:type="arc"
         id="path921"
         style="opacity:1;fill:#000000;fill-opacity:1;stroke:#000000;stroke-width:0.52916664;stroke-miterlimit:4;stroke-dasharray:none;stroke-opacity:1" />
      <path
         d="m 13.417201,189.93775 a 26.458334,13.229167 0 0 1 -37.417735,0 26.458334,13.229167 0 0 1 0,-18.70887 26.458334,13.229167 0 0 1 37.417734,0 l -18.7088665,9.35443 z"
         sodipodi:end="5.4977871"
         sodipodi:start="0.78539816"
         sodipodi:ry="13.229167"
         sodipodi:rx="26.458334"
         sodipodi:cy="180.58331"
         sodipodi:cx="-5.2916665"
         sodipodi:type="arc"
         id="path921-5"
         style="opacity:1;fill:#000000;fill-opacity:1;stroke:#000000;stroke-width:0.52916664;stroke-miterlimit:4;stroke-dasharray:none;stroke-opacity:1" />
      <path
         d="m 13.417201,208.45859 a 26.458334,13.229167 0 0 1 -37.417735,0 26.458334,13.229167 0 0 1 0,-18.70887 26.458334,13.229167 0 0 1 37.417734,0 l -18.7088665,9.35444 z"
         sodipodi:end="5.4977871"
         sodipodi:start="0.78539816"
         sodipodi:ry="13.229167"
         sodipodi:rx="26.458334"
         sodipodi:cy="199.10416"
         sodipodi:cx="-5.2916665"
         sodipodi:type="arc"
         id="path921-5-6"
         style="opacity:1;fill:#000000;fill-opacity:1;stroke:#000000;stroke-width:0.52916664;stroke-miterlimit:4;stroke-dasharray:none;stroke-opacity:1" />
      <ellipse
         ry="26.458334"
         rx="13.229167"
         cy="180.62112"
         cx="-23.585712"
         id="path970"
         style="opacity:1;fill:#000000;fill-opacity:1;stroke:#000000;stroke-width:0.52916664;stroke-miterlimit:4;stroke-dasharray:none;stroke-opacity:1" />
    </g>
    <g
       transform="matrix(-0.17042777,-0.09201832,-0.11940577,0.39622565,93.421258,116.48209)"
       id="g999">
      <path
         style="opacity:1;fill:#000000;fill-opacity:1;stroke:#000000;stroke-width:0.52916664;stroke-miterlimit:4;stroke-dasharray:none;stroke-opacity:1"
         id="path991"
         sodipodi:type="arc"
         sodipodi:cx="-5.2916665"
         sodipodi:cy="162.06248"
         sodipodi:rx="26.458334"
         sodipodi:ry="13.229167"
         sodipodi:start="0.78539816"
         sodipodi:end="5.4977871"
         d="m 13.417201,171.41692 a 26.458334,13.229167 0 0 1 -37.417735,0 26.458334,13.229167 0 0 1 0,-18.70887 26.458334,13.229167 0 0 1 37.417734,0 l -18.7088665,9.35443 z" />
      <path
         style="opacity:1;fill:#000000;fill-opacity:1;stroke:#000000;stroke-width:0.52916664;stroke-miterlimit:4;stroke-dasharray:none;stroke-opacity:1"
         id="path993"
         sodipodi:type="arc"
         sodipodi:cx="-5.2916665"
         sodipodi:cy="180.58331"
         sodipodi:rx="26.458334"
         sodipodi:ry="13.229167"
         sodipodi:start="0.78539816"
         sodipodi:end="5.4977871"
         d="m 13.417201,189.93775 a 26.458334,13.229167 0 0 1 -37.417735,0 26.458334,13.229167 0 0 1 0,-18.70887 26.458334,13.229167 0 0 1 37.417734,0 l -18.7088665,9.35443 z" />
      <path
         style="opacity:1;fill:#000000;fill-opacity:1;stroke:#000000;stroke-width:0.52916664;stroke-miterlimit:4;stroke-dasharray:none;stroke-opacity:1"
         id="path995"
         sodipodi:type="arc"
         sodipodi:cx="-5.2916665"
         sodipodi:cy="199.10416"
         sodipodi:rx="26.458334"
         sodipodi:ry="13.229167"
         sodipodi:start="0.78539816"
         sodipodi:end="5.4977871"
         d="m 13.417201,208.45859 a 26.458334,13.229167 0 0 1 -37.417735,0 26.458334,13.229167 0 0 1 0,-18.70887 26.458334,13.229167 0 0 1 37.417734,0 l -18.7088665,9.35444 z" />
      <ellipse
         style="opacity:1;fill:#000000;fill-opacity:1;stroke:#000000;stroke-width:0.52916664;stroke-miterlimit:4;stroke-dasharray:none;stroke-opacity:1"
         id="ellipse997"
         cx="-23.585712"
         cy="180.62112"
         rx="13.229167"
         ry="26.458334" />
    </g>
  </g>
</svg>
